<?xml version="1.0" standalone="no"?>
<!DOCTYPE svg PUBLIC "-//W3C//DTD SVG 20010904//EN"
 "http://www.w3.org/TR/2001/REC-SVG-20010904/DTD/svg10.dtd">
<svg version="1.0" xmlns="http://www.w3.org/2000/svg"
 width="70.000000pt" height="70.000000pt" viewBox="0 0 70.000000 70.000000"
 preserveAspectRatio="xMidYMid meet">
<metadata>
Created by potrace 1.11, written by Peter Selinger 2001-2013
</metadata>
<g transform="translate(0.000000,70.000000) scale(0.100000,-0.100000)"
fill="#000000" stroke="none">
<path d="M200 623 c1 -21 1 -76 1 -123 l-1 -85 -36 62 -35 63 -30 -15 c-16 -9
-29 -18 -29 -21 0 -12 105 -209 115 -216 25 -18 -19 -6 -80 23 -37 17 -68 29
-69 27 -1 -2 -10 -15 -19 -31 l-18 -27 111 -54 c68 -33 127 -70 154 -96 55
-54 129 -90 182 -90 49 0 145 47 180 87 13 15 24 31 24 35 0 4 7 14 16 22 10
11 17 42 21 89 8 114 -39 218 -124 272 -67 42 -162 47 -232 11 -29 -14 -54
-26 -55 -26 -1 0 -2 28 -2 63 l1 62 -38 3 -39 3 2 -38z m324 -197 c23 -13 48
-36 55 -49 51 -95 -64 -221 -176 -194 -97 24 -135 96 -93 182 38 79 136 107
214 61z"/>
</g>
</svg>
